<svg width="84" height="110" viewBox="0 0 84 110" fill="none" xmlns="http://www.w3.org/2000/svg">
<g filter="url(#filter0_d_12_5)">
<path fill-rule="evenodd" clip-rule="evenodd" d="M77.1752 71.7157L45.3554 103.536C43.4028 105.488 40.2369 105.488 38.2843 103.536L6.46451 71.7157C4.51189 69.7631 4.51189 66.5973 6.46451 64.6447C8.41713 62.692 11.5829 62.692 13.5356 64.6447V64.6447C22.128 73.2371 36.8198 67.1516 36.8198 55L36.8198 10C36.8198 7.23858 39.0584 5 41.8198 5V5C44.5813 5 46.8198 7.23858 46.8198 10L46.8198 55C46.8198 67.1516 61.5116 73.2371 70.1041 64.6447V64.6447C72.0567 62.692 75.2226 62.692 77.1752 64.6447C79.1278 66.5973 79.1278 69.7631 77.1752 71.7157Z" fill="#FFBA13"/>
</g>
<defs>
<filter id="filter0_d_12_5" x="0" y="0" width="83.6396" height="110" filterUnits="userSpaceOnUse" color-interpolation-filters="sRGB">
<feFlood flood-opacity="0" result="BackgroundImageFix"/>
<feColorMatrix in="SourceAlpha" type="matrix" values="0 0 0 0 0 0 0 0 0 0 0 0 0 0 0 0 0 0 127 0" result="hardAlpha"/>
<feOffset/>
<feGaussianBlur stdDeviation="2.5"/>
<feComposite in2="hardAlpha" operator="out"/>
<feColorMatrix type="matrix" values="0 0 0 0 0 0 0 0 0 0 0 0 0 0 0 0 0 0 1 0"/>
<feBlend mode="normal" in2="BackgroundImageFix" result="effect1_dropShadow_12_5"/>
<feBlend mode="normal" in="SourceGraphic" in2="effect1_dropShadow_12_5" result="shape"/>
</filter>
</defs>
</svg>
