<svg width="111" height="84" viewBox="0 0 111 84" fill="none" xmlns="http://www.w3.org/2000/svg">
<g filter="url(#filter0_d_12_5)">
<path fill-rule="evenodd" clip-rule="evenodd" d="M72.536 6.64466L104.356 38.4645C106.308 40.4171 106.308 43.5829 104.356 45.5355L72.536 77.3553C70.5834 79.308 67.4176 79.308 65.465 77.3553C63.5124 75.4027 63.5124 72.2369 65.465 70.2843V70.2843C74.0575 61.6918 67.9719 47 55.8203 47H10.8203C8.05889 47 5.82031 44.7614 5.82031 42V42C5.82031 39.2386 8.05889 37 10.8203 37H55.8203C67.9719 37 74.0575 22.3082 65.465 13.7157V13.7157C63.5124 11.7631 63.5124 8.59729 65.465 6.64466C67.4176 4.69204 70.5834 4.69204 72.536 6.64466Z" fill="#FFBA13"/>
</g>
<defs>
<filter id="filter0_d_12_5" x="0.820312" y="0.180199" width="110" height="83.6396" filterUnits="userSpaceOnUse" color-interpolation-filters="sRGB">
<feFlood flood-opacity="0" result="BackgroundImageFix"/>
<feColorMatrix in="SourceAlpha" type="matrix" values="0 0 0 0 0 0 0 0 0 0 0 0 0 0 0 0 0 0 127 0" result="hardAlpha"/>
<feOffset/>
<feGaussianBlur stdDeviation="2.5"/>
<feComposite in2="hardAlpha" operator="out"/>
<feColorMatrix type="matrix" values="0 0 0 0 0 0 0 0 0 0 0 0 0 0 0 0 0 0 1 0"/>
<feBlend mode="normal" in2="BackgroundImageFix" result="effect1_dropShadow_12_5"/>
<feBlend mode="normal" in="SourceGraphic" in2="effect1_dropShadow_12_5" result="shape"/>
</filter>
</defs>
</svg>
