<svg xmlns="http://www.w3.org/2000/svg"  viewBox="0 0 100 100" width="100px" height="100px" baseProfile="basic"><path fill="#c7ede6" d="M87.215,56.71C88.35,54.555,89,52.105,89,49.5c0-6.621-4.159-12.257-10.001-14.478	C78.999,35.015,79,35.008,79,35c0-11.598-9.402-21-21-21c-9.784,0-17.981,6.701-20.313,15.757C36.211,29.272,34.638,29,33,29	c-7.692,0-14.023,5.793-14.89,13.252C12.906,43.353,9,47.969,9,53.5C9,59.851,14.149,65,20.5,65c0.177,0,0.352-0.012,0.526-0.022	C21.022,65.153,21,65.324,21,65.5C21,76.822,30.178,86,41.5,86c6.437,0,12.175-2.972,15.934-7.614C59.612,80.611,62.64,82,66,82	c4.65,0,8.674-2.65,10.666-6.518C77.718,75.817,78.837,76,80,76c6.075,0,11-4.925,11-11C91,61.689,89.53,58.727,87.215,56.71z"/><path fill="#fff" d="M15.405,51H5.5C5.224,51,5,50.776,5,50.5S5.224,50,5.5,50h9.905c0.276,0,0.5,0.224,0.5,0.5 S15.682,51,15.405,51z"/><path fill="#fff" d="M18.5,51h-1c-0.276,0-0.5-0.224-0.5-0.5s0.224-0.5,0.5-0.5h1c0.276,0,0.5,0.224,0.5,0.5 S18.777,51,18.5,51z"/><path fill="#fff" d="M23.491,53H14.5c-0.276,0-0.5-0.224-0.5-0.5s0.224-0.5,0.5-0.5h8.991c0.276,0,0.5,0.224,0.5,0.5 S23.767,53,23.491,53z"/><path fill="#fff" d="M12.5,53h-1c-0.276,0-0.5-0.224-0.5-0.5s0.224-0.5,0.5-0.5h1c0.276,0,0.5,0.224,0.5,0.5 S12.777,53,12.5,53z"/><path fill="#fff" d="M9.5,53h-2C7.224,53,7,52.776,7,52.5S7.224,52,7.5,52h2c0.276,0,0.5,0.224,0.5,0.5S9.777,53,9.5,53z"/><path fill="#fff" d="M15.5,55h-2c-0.276,0-0.5-0.224-0.5-0.5s0.224-0.5,0.5-0.5h2c0.276,0,0.5,0.224,0.5,0.5 S15.776,55,15.5,55z"/><path fill="#fff" d="M18.5,46c-0.177,0-0.823,0-1,0c-0.276,0-0.5,0.224-0.5,0.5c0,0.276,0.224,0.5,0.5,0.5 c0.177,0,0.823,0,1,0c0.276,0,0.5-0.224,0.5-0.5C19,46.224,18.776,46,18.5,46z"/><path fill="#fff" d="M18.5,48c-0.177,0-4.823,0-5,0c-0.276,0-0.5,0.224-0.5,0.5c0,0.276,0.224,0.5,0.5,0.5 c0.177,0,4.823,0,5,0c0.276,0,0.5-0.224,0.5-0.5C19,48.224,18.776,48,18.5,48z"/><path fill="#fff" d="M23.5,50c-0.177,0-2.823,0-3,0c-0.276,0-0.5,0.224-0.5,0.5c0,0.276,0.224,0.5,0.5,0.5 c0.177,0,2.823,0,3,0c0.276,0,0.5-0.224,0.5-0.5C24,50.224,23.776,50,23.5,50z"/><path fill="#fff" d="M73.5,26h-10c-0.276,0-0.5-0.224-0.5-0.5s0.224-0.5,0.5-0.5h10c0.276,0,0.5,0.224,0.5,0.5 S73.776,26,73.5,26z"/><path fill="#fff" d="M77.5,26h-2c-0.276,0-0.5-0.224-0.5-0.5s0.224-0.5,0.5-0.5h2c0.276,0,0.5,0.224,0.5,0.5 S77.776,26,77.5,26z"/><path fill="#fff" d="M82.5,28h-10c-0.276,0-0.5-0.224-0.5-0.5s0.224-0.5,0.5-0.5h10c0.276,0,0.5,0.224,0.5,0.5 S82.777,28,82.5,28z"/><path fill="#fff" d="M70.5,28h-1c-0.276,0-0.5-0.224-0.5-0.5s0.224-0.5,0.5-0.5h1c0.276,0,0.5,0.224,0.5,0.5 S70.776,28,70.5,28z"/><path fill="#fff" d="M67.375,28H65.5c-0.276,0-0.5-0.224-0.5-0.5s0.224-0.5,0.5-0.5h1.875c0.276,0,0.5,0.224,0.5,0.5 S67.651,28,67.375,28z"/><path fill="#fff" d="M76.5,24h-5c-0.276,0-0.5-0.224-0.5-0.5s0.224-0.5,0.5-0.5h5c0.276,0,0.5,0.224,0.5,0.5 S76.777,24,76.5,24z"/><path fill="#fff" d="M73.5,30h-2c-0.276,0-0.5-0.224-0.5-0.5s0.224-0.5,0.5-0.5h2c0.276,0,0.5,0.224,0.5,0.5 S73.776,30,73.5,30z"/><g><path fill="#fdfcef" d="M81.5,79.5c0,0,1.567,0,3.5,0s3.5-1.567,3.5-3.5c0-1.781-1.335-3.234-3.055-3.455 C85.473,72.366,85.5,72.187,85.5,72c0-1.933-1.567-3.5-3.5-3.5c-1.032,0-1.95,0.455-2.59,1.165 c-0.384-1.808-1.987-3.165-3.91-3.165c-2.209,0-4,1.791-4,4c0,0.191,0.03,0.374,0.056,0.558C71.128,70.714,70.592,70.5,70,70.5 c-1.228,0-2.245,0.887-2.455,2.055C67.366,72.527,67.187,72.5,67,72.5c-1.933,0-3.5,1.567-3.5,3.5s1.567,3.5,3.5,3.5s7.5,0,7.5,0 V80h7V79.5z"/><path fill="#472b29" d="M83.25,75C83.112,75,83,74.888,83,74.75c0-1.223,0.995-2.218,2.218-2.218 c0.034,0.009,0.737-0.001,1.244,0.136c0.133,0.036,0.212,0.173,0.176,0.306c-0.036,0.134-0.173,0.213-0.306,0.176 c-0.444-0.12-1.1-0.12-1.113-0.118c-0.948,0-1.719,0.771-1.719,1.718C83.5,74.888,83.388,75,83.25,75z"/><circle cx="76.5" cy="79.5" r=".5" fill="#472b29"/><path fill="#472b29" d="M89,76c0,2.206-1.794,4-4,4h-3.5c-0.276,0-0.5-0.224-0.5-0.5s0.224-0.5,0.5-0.5H85 c1.654,0,3-1.346,3-3c0-1.496-1.125-2.768-2.618-2.959c-0.134-0.018-0.255-0.088-0.336-0.196s-0.115-0.244-0.094-0.377 C84.975,72.314,85,72.16,85,72c0-1.654-1.346-3-3-3c-0.85,0-1.638,0.355-2.219,1c-0.125,0.139-0.321,0.198-0.5,0.148 c-0.182-0.049-0.321-0.195-0.36-0.379C78.58,68.165,77.141,67,75.5,67c-1.93,0-3.5,1.57-3.5,3.5c0,0.143,0.021,0.28,0.041,0.418 c0.029,0.203-0.063,0.438-0.242,0.54c-0.179,0.102-0.396,0.118-0.556-0.01C70.878,71.155,70.449,71,70,71 c-0.966,0-1.792,0.691-1.963,1.644c-0.048,0.267-0.296,0.446-0.569,0.405C67.314,73.025,67.16,73,67,73c-1.654,0-3,1.346-3,3 s1.346,3,3,3h7.5c0.276,0,0.5,0.224,0.5,0.5S74.776,80,74.5,80H67c-2.206,0-4-1.794-4-4s1.794-4,4-4 c0.059,0,0.116,0.002,0.174,0.006C67.588,70.82,68.711,70,70,70c0.349,0,0.689,0.061,1.011,0.18C71.176,67.847,73.126,66,75.5,66 c1.831,0,3.466,1.127,4.153,2.774C80.333,68.276,81.155,68,82,68c2.206,0,4,1.794,4,4c0,0.048-0.001,0.095-0.004,0.142 C87.739,72.59,89,74.169,89,76z"/><path fill="#472b29" d="M79.5,79c-0.159,0-0.841,0-1,0c-0.276,0-0.5,0.224-0.5,0.5c0,0.276,0.224,0.5,0.5,0.5 c0.159,0,0.841,0,1,0c0.276,0,0.5-0.224,0.5-0.5C80,79.224,79.776,79,79.5,79z"/></g><g><path fill="#fdfcef" d="M43.875,37.5c0,0,3.64,0,6.125,0s4.5-2.015,4.5-4.5c0-2.333-1.782-4.229-4.055-4.455 C50.467,28.364,50.5,28.187,50.5,28c0-2.485-2.015-4.5-4.5-4.5c-1.438,0-2.703,0.686-3.527,1.736 C42.333,22.6,40.171,20.5,37.5,20.5c-2.761,0-5,2.239-5,5c0,0.446,0.077,0.87,0.187,1.282C32.045,26.005,31.086,25.5,30,25.5 c-1.781,0-3.234,1.335-3.455,3.055C26.364,28.533,26.187,28.5,26,28.5c-2.485,0-4.5,2.015-4.5,4.5s2.015,4.5,4.5,4.5s9.5,0,9.5,0 h5.375V38h3V37.5z"/><path fill="#472b29" d="M37.5,20c-3.033,0-5.5,2.467-5.5,5.5c0,0.016,0,0.031,0,0.047C31.398,25.192,30.71,25,30,25 c-1.831,0-3.411,1.261-3.858,3.005C26.095,28.002,26.048,28,26,28c-2.757,0-5,2.243-5,5s2.243,5,5,5h14.875 c0.276,0,0.5-0.224,0.5-0.5s-0.224-0.5-0.5-0.5H26c-2.206,0-4-1.794-4-4s1.794-4,4-4c0.117,0,0.23,0.017,0.343,0.032l0.141,0.019 c0.021,0.003,0.041,0.004,0.062,0.004c0.246,0,0.462-0.185,0.495-0.437C27.232,27.125,28.504,26,30,26 c0.885,0,1.723,0.401,2.301,1.1c0.098,0.118,0.241,0.182,0.386,0.182c0.078,0,0.156-0.018,0.228-0.056 c0.209-0.107,0.314-0.346,0.254-0.573C33.054,26.218,33,25.852,33,25.5c0-2.481,2.019-4.5,4.5-4.5c2.381,0,4.347,1.872,4.474,4.263 c0.011,0.208,0.15,0.387,0.349,0.45c0.05,0.016,0.101,0.024,0.152,0.024c0.15,0,0.296-0.069,0.392-0.192 C43.638,24.563,44.779,24,46,24c2.206,0,4,1.794,4,4c0,0.117-0.017,0.23-0.032,0.343l-0.019,0.141 c-0.016,0.134,0.022,0.268,0.106,0.373c0.084,0.105,0.207,0.172,0.34,0.185C52.451,29.247,54,30.949,54,33c0,2.206-1.794,4-4,4 h-6.125c-0.276,0-0.5,0.224-0.5,0.5s0.224,0.5,0.5,0.5H50c2.757,0,5-2.243,5-5c0-2.397-1.689-4.413-4.003-4.877 C50.999,28.082,51,28.041,51,28c0-2.757-2.243-5-5-5c-1.176,0-2.293,0.416-3.183,1.164C42.219,21.76,40.055,20,37.5,20L37.5,20z"/><path fill="#472b29" d="M36,27c-1.403,0-2.609,0.999-2.913,2.341C32.72,29.119,32.301,29,31.875,29 c-1.202,0-2.198,0.897-2.353,2.068C29.319,31.022,29.126,31,28.937,31c-1.529,0-2.811,1.2-2.918,2.732 C26.01,33.87,26.114,33.99,26.251,34c0.006,0,0.012,0,0.018,0c0.13,0,0.24-0.101,0.249-0.232c0.089-1.271,1.151-2.268,2.419-2.268 c0.229,0,0.47,0.042,0.738,0.127c0.022,0.007,0.045,0.01,0.067,0.01c0.055,0,0.11-0.02,0.156-0.054 C29.962,31.537,30,31.455,30,31.375c0-1.034,0.841-1.875,1.875-1.875c0.447,0,0.885,0.168,1.231,0.473 c0.047,0.041,0.106,0.063,0.165,0.063c0.032,0,0.063-0.006,0.093-0.019c0.088-0.035,0.148-0.117,0.155-0.212 C33.623,28.512,34.712,27.5,36,27.5c0.208,0,0.425,0.034,0.682,0.107c0.023,0.007,0.047,0.01,0.07,0.01 c0.109,0,0.207-0.073,0.239-0.182c0.038-0.133-0.039-0.271-0.172-0.309C36.517,27.04,36.256,27,36,27L36,27z"/><path fill="#472b29" d="M49.883,28.5c-1.326,0-2.508,0.897-2.874,2.182c-0.038,0.133,0.039,0.271,0.172,0.309 C47.205,30.997,47.228,31,47.25,31c0.109,0,0.209-0.072,0.24-0.182C47.795,29.748,48.779,29,49.883,29 c0.117,0,0.23,0.014,0.342,0.029c0.012,0.002,0.023,0.003,0.035,0.003c0.121,0,0.229-0.092,0.246-0.217 c0.019-0.137-0.077-0.263-0.214-0.281C50.158,28.516,50.022,28.5,49.883,28.5L49.883,28.5z"/></g><path fill="#fdfcef" d="M67.666,55.104V42.322c2.861,0,5.063-0.269,7.011,1.993	c0.78,0.906,1.404,2.18,1.404,3.941C76.081,56.39,68.184,55.163,67.666,55.104z M82.445,46.065c-0.804-4.248-3.2-6.777-5.544-8.268	c-2.202-1.401-4.791-2.065-7.401-2.065H30.586c-1.359,0-1.881,1.327-1.886,1.992V63.3c0,3.866,3.134,7,7,7h24.809	c3.88,0,7.023-3.157,7-7.036c-0.004-0.594-0.009-1.131-0.018-1.564C77.279,62.244,84.185,55.257,82.445,46.065"/><path fill="#472b29" d="M60.509,71H35.7c-4.246,0-7.7-3.455-7.7-7.7V37.725c0.008-1.089,0.836-2.692,2.586-2.692H69.5	c2.851,0,5.539,0.752,7.776,2.175c3.126,1.988,5.151,5.006,5.856,8.728l0,0c0.833,4.401-0.201,8.528-2.911,11.621	c-2.806,3.202-7.164,4.967-12.02,4.871c0.003,0.261,0.005,0.541,0.007,0.834c0.013,2.061-0.782,4.003-2.236,5.466	C64.516,70.193,62.575,71,60.509,71z M30.586,36.433c-0.972,0-1.185,1.083-1.186,1.297V63.3c0,3.474,2.826,6.3,6.3,6.3h24.809	c1.69,0,3.278-0.66,4.471-1.859c1.189-1.197,1.84-2.786,1.829-4.472c-0.003-0.591-0.009-1.125-0.018-1.554	c-0.004-0.195,0.074-0.382,0.214-0.518c0.14-0.136,0.314-0.215,0.525-0.195c4.729,0.262,8.975-1.329,11.638-4.368	c2.421-2.762,3.341-6.469,2.59-10.438l0,0c-0.641-3.38-2.401-6.007-5.233-7.807c-2.012-1.28-4.44-1.956-7.024-1.956H30.586z M69.138,55.899c-0.613,0-1.137-0.047-1.504-0.094c-0.35-0.044-0.668-0.349-0.668-0.701V42.322c0-0.387,0.313-0.7,0.7-0.7	l0.817-0.005c2.55-0.022,4.756-0.044,6.725,2.241c1.044,1.213,1.573,2.693,1.573,4.398c0,2.588-0.759,4.569-2.255,5.886	C72.888,55.585,70.716,55.899,69.138,55.899z M68.366,54.472c1.325,0.095,3.644,0.022,5.235-1.38	c1.181-1.04,1.779-2.667,1.779-4.835c0-1.361-0.415-2.533-1.233-3.485c-1.545-1.793-3.27-1.777-5.65-1.755l-0.131,0.001V54.472z"/><path fill="#472b29" d="M60.691,68H58.5c-0.276,0-0.5-0.224-0.5-0.5s0.224-0.5,0.5-0.5h2.191c1.93,0,3.5-1.57,3.5-3.5v-1.822	c0-0.276,0.224-0.5,0.5-0.5s0.5,0.224,0.5,0.5V63.5C65.191,65.981,63.173,68,60.691,68z M55.5,68h-4c-0.276,0-0.5-0.224-0.5-0.5	s0.224-0.5,0.5-0.5h4c0.276,0,0.5,0.224,0.5,0.5S55.776,68,55.5,68z M44.5,39h-13c-0.276,0-0.5-0.224-0.5-0.5s0.224-0.5,0.5-0.5h13	c0.276,0,0.5,0.224,0.5,0.5S44.776,39,44.5,39z"/><path fill="#472b29" d="M52.5,39h-5c-0.276,0-0.5-0.224-0.5-0.5s0.224-0.5,0.5-0.5h5c0.276,0,0.5,0.224,0.5,0.5	S52.776,39,52.5,39z"/><path fill="#f96c55" d="M47.833,63.279c0.395,0.292,0.72-0.054,0.72-0.054s6.426-5.865,9.321-9.243	c2.575-3.022,2.743-8.114-1.679-10.017c-4.422-1.903-8.06,2.238-8.06,2.238c-3.155-3.47-7.93-3.294-10.139-0.946	c-2.209,2.348-1.437,6.379,0.21,8.623c1.547,2.106,8.345,8.165,9.375,9.19C47.581,63.07,47.656,63.149,47.833,63.279z"/><path fill="#472b29" d="M48.161,63.897c-0.197,0-0.413-0.059-0.625-0.216l0,0c-0.223-0.165-0.316-0.266-0.316-0.266	c-0.243-0.242-0.843-0.796-1.627-1.52c-2.467-2.279-6.596-6.094-7.79-7.72c-1.872-2.55-2.471-6.815-0.172-9.261	c1.137-1.208,2.92-1.869,4.772-1.876c2.129,0.018,4.147,0.884,5.738,2.45c1.094-1.026,4.398-3.64,8.251-1.984	c2.438,1.049,3.318,2.853,3.629,4.181c0.514,2.202-0.163,4.738-1.767,6.62c-2.883,3.363-9.301,9.23-9.365,9.289	C48.751,63.744,48.479,63.897,48.161,63.897z M42.338,44.039c-1.597,0-3.044,0.567-3.979,1.561c-1.947,2.07-1.386,5.756,0.25,7.984	c1.137,1.548,5.382,5.47,7.662,7.577c0.797,0.736,1.406,1.299,1.662,1.554c0.019,0.019,0.078,0.074,0.196,0.161c0,0,0,0,0,0	c0.023,0.017,0.035,0.02,0.035,0.02c0.114-0.099,6.488-5.925,9.329-9.24c1.4-1.644,1.996-3.844,1.553-5.743	c-0.369-1.583-1.424-2.791-3.049-3.49c-4.034-1.734-7.349,1.952-7.488,2.11c-0.095,0.107-0.251,0.16-0.375,0.169	c-0.141,0-0.275-0.059-0.37-0.163c-1.45-1.596-3.357-2.484-5.37-2.501C42.376,44.039,42.356,44.039,42.338,44.039z"/></svg>